<svg preserveAspectRatio="none" width="100%" height="100%" overflow="visible" style="display: block;" viewBox="0 0 268.001 268" fill="none" xmlns="http://www.w3.org/2000/svg">
<g id="Group 3">
<path id="Ellipse" d="M93.8167 7.57241C93.5925 6.86712 93.9823 6.11296 94.6898 5.89586C104.792 2.79573 115.226 0.901534 125.774 0.252766C126.513 0.207331 127.143 0.776331 127.181 1.51541V1.51541C127.219 2.25449 126.65 2.88377 125.912 2.92935C115.593 3.56615 105.386 5.41922 95.5017 8.45007C94.7941 8.66703 94.0408 8.2777 93.8167 7.57241V7.57241Z" fill="var(--fill-0, #FF9900)"/>
<path id="Ellipse_2" d="M61.2567 23.063C60.8509 22.4441 61.0232 21.6129 61.6462 21.2133C69.2501 16.3352 77.3279 12.2386 85.7562 8.98605C86.4466 8.7196 87.2191 9.07169 87.4787 9.76476V9.76476C87.7382 10.4578 87.3865 11.2294 86.6961 11.496C78.4537 14.6787 70.5536 18.6852 63.1158 23.4545C62.4928 23.854 61.6625 23.6819 61.2567 23.063V23.063Z" fill="var(--fill-0, #D23E0C)"/>
<path id="Ellipse_3" d="M24.8921 209.459C24.2834 209.88 23.4476 209.727 23.0328 209.114C3.84898 180.775 -3.77418 146.15 1.76198 112.344C7.29813 78.5384 25.5674 48.154 52.7887 27.4137C53.3773 26.9652 54.2182 27.0872 54.6608 27.6803V27.6803C55.1034 28.2734 54.9802 29.113 54.3916 29.5616C27.7265 49.8868 9.83073 79.6564 4.40674 112.777C-1.01725 145.898 6.44803 179.821 25.2371 207.59C25.6518 208.203 25.5008 209.038 24.8921 209.459V209.459Z" fill="var(--fill-0, #C2D20C)"/>
<path id="Ellipse_4" d="M224.185 231.291C224.688 231.833 224.656 232.682 224.108 233.179C210.594 245.458 194.708 254.848 177.425 260.769C159.719 266.834 140.939 269.123 122.294 267.488C103.65 265.853 85.5548 260.33 69.1748 251.276C53.1857 242.438 39.177 230.426 28.0056 215.982C27.5529 215.397 27.6693 214.556 28.2591 214.109V214.109C28.849 213.662 29.689 213.779 30.1419 214.364C41.0872 228.509 54.8099 240.273 70.4713 248.93C86.5237 257.804 104.257 263.216 122.528 264.818C140.8 266.42 159.205 264.177 176.556 258.233C193.485 252.434 209.046 243.238 222.286 231.214C222.834 230.716 223.682 230.748 224.185 231.291V231.291Z" fill="var(--fill-0, #0CD241)"/>
<path id="Ellipse_5" d="M134 1.34C134 0.599937 134.601 -0.000698522 135.341 0.00670145C161.097 0.264253 186.244 7.94026 207.763 22.1292C229.656 36.5643 246.832 57.1056 257.163 81.2079C267.494 105.31 270.526 131.914 265.884 157.723C261.32 183.092 249.539 206.597 231.965 225.428C231.46 225.969 230.611 225.989 230.075 225.479V225.479C229.539 224.969 229.519 224.121 230.024 223.579C247.236 205.129 258.776 182.102 263.246 157.249C267.796 131.956 264.824 105.884 254.7 82.2638C244.575 58.6435 227.743 38.513 206.288 24.3666C185.206 10.4664 160.572 2.94429 135.341 2.68683C134.601 2.67928 134 2.08006 134 1.34V1.34Z" fill="var(--fill-0, #00A2FF)"/>
</g>
</svg>
