<svg width="112" height="14" viewBox="0 0 112 14" fill="none" xmlns="http://www.w3.org/2000/svg">
<path d="M21.8955 0C22.7779 0 23.6483 0.092869 24.5059 0.279297C25.3633 0.465716 26.1339 0.751487 26.8174 1.13672L25.4941 4.3252C24.8479 4.00205 24.2193 3.75923 23.6104 3.59766C23.014 3.43618 22.4299 3.35547 21.8584 3.35547C21.4359 3.35547 21.1001 3.3932 20.8516 3.46777C20.6033 3.54228 20.4234 3.64152 20.3115 3.76562C20.2121 3.88986 20.1621 4.02671 20.1621 4.17578C20.1621 4.39949 20.2927 4.58008 20.5537 4.7168C20.8147 4.84103 21.1567 4.94623 21.5791 5.0332C22.0139 5.12017 22.4858 5.2141 22.9951 5.31348C23.5171 5.41291 24.0334 5.54963 24.543 5.72363C25.0525 5.89763 25.5189 6.12726 25.9414 6.41309C26.3762 6.69889 26.7244 7.07156 26.9854 7.53125C27.2463 7.99111 27.377 8.5635 27.377 9.24707C27.3769 10.0423 27.1463 10.7753 26.6865 11.4463C26.2392 12.1049 25.5685 12.6397 24.6738 13.0498C23.779 13.4475 22.6535 13.6465 21.2988 13.6465C20.2053 13.6465 19.1489 13.522 18.1299 13.2734C17.1109 13.0249 16.2719 12.7023 15.6133 12.3047L17.0303 9.09766C17.6516 9.45805 18.3415 9.74994 19.0996 9.97363C19.8701 10.1849 20.6161 10.291 21.3369 10.291C21.7591 10.291 22.0882 10.2655 22.3242 10.2158C22.5728 10.1537 22.7534 10.0731 22.8652 9.97363C22.977 9.86182 23.0332 9.73109 23.0332 9.58203C23.0331 9.34614 22.9023 9.16007 22.6416 9.02344C22.3807 8.88675 22.0325 8.77449 21.5977 8.6875C21.1751 8.58807 20.7088 8.48907 20.1992 8.38965C19.6897 8.27781 19.1743 8.13393 18.6523 7.95996C18.1428 7.78597 17.6703 7.55634 17.2354 7.27051C16.8129 6.9847 16.4709 6.61209 16.21 6.15234C15.949 5.68006 15.8184 5.09541 15.8184 4.39941C15.8184 3.59181 16.0421 2.85875 16.4893 2.2002C16.9491 1.52906 17.6267 0.994391 18.5215 0.59668C19.4287 0.198987 20.5534 2.01565e-05 21.8955 0ZM103.707 0C104.776 0 105.758 0.167359 106.653 0.50293C107.548 0.838486 108.325 1.31713 108.983 1.93848C109.642 2.54748 110.151 3.26885 110.512 4.10156C110.885 4.92182 111.071 5.829 111.071 6.82324C111.071 7.80506 110.885 8.71224 110.512 9.54492C110.151 10.3776 109.642 11.1051 108.983 11.7266C108.325 12.3355 107.548 12.808 106.653 13.1436C105.758 13.4791 104.776 13.6465 103.707 13.6465C102.651 13.6464 101.669 13.4791 100.762 13.1436C99.867 12.808 99.0903 12.3355 98.4316 11.7266C97.773 11.1051 97.2576 10.3776 96.8848 9.54492C96.5244 8.71221 96.3438 7.80509 96.3438 6.82324C96.3438 5.82896 96.5243 4.92185 96.8848 4.10156C97.2576 3.26885 97.7729 2.54747 98.4316 1.93848C99.0903 1.31714 99.867 0.838472 100.762 0.50293C101.669 0.167401 102.651 4.20031e-05 103.707 0ZM15.7344 13.3477H11.1855L10.3115 11.0732H5.34863L4.47461 13.3477H0L5.7041 0.297852H10.0293L15.7344 13.3477ZM33.0889 4.92188H37.1533V0.297852H41.5527V13.3477H37.1533V8.53809H33.0889V13.3477H28.6895V0.297852H33.0889V4.92188ZM54.2793 3.61621H48.0713V5.85352H53.5146V9.17188H48.0713V13.3477H43.6719V0.297852H54.2793V3.61621ZM61.6025 3.57715L63.7646 0.297852H68.499L63.9639 6.60352L68.7793 13.3477H63.7461L61.4883 9.8584L59.29 13.3477H54.2754L58.9902 6.75781L54.4434 0.297852H59.3838L61.6025 3.57715ZM75.5869 0.297852C76.8047 0.297852 77.855 0.496912 78.7373 0.894531C79.632 1.29218 80.322 1.86385 80.8066 2.60938C81.2913 3.34266 81.5342 4.21302 81.5342 5.21973C81.5342 6.22644 81.2913 7.0968 80.8066 7.83008C80.322 8.56317 79.632 9.13485 78.7373 9.54492C77.855 9.94254 76.8047 10.1416 75.5869 10.1416H73.7041V13.3477H69.3047V0.297852H75.5869ZM89.2588 0.297852C90.4766 0.297852 91.5268 0.496912 92.4092 0.894531C93.3039 1.29218 93.9938 1.86385 94.4785 2.60938C94.9632 3.34266 95.2061 4.21302 95.2061 5.21973C95.2061 6.22644 94.9632 7.0968 94.4785 7.83008C94.0563 8.45782 93.4784 8.95783 92.7451 9.33105L95.4854 13.3477H90.7881L88.5742 10.0664H87.376V13.3477H82.9766V0.297852H89.2588ZM103.707 3.56055C103.297 3.56059 102.912 3.63515 102.552 3.78418C102.204 3.93331 101.893 4.15069 101.619 4.43652C101.358 4.7099 101.153 5.05187 101.004 5.46191C100.855 5.85963 100.78 6.31367 100.78 6.82324C100.78 7.33281 100.855 7.79299 101.004 8.20312C101.153 8.60077 101.358 8.9427 101.619 9.22852C101.893 9.50194 102.204 9.71316 102.552 9.8623C102.912 10.0113 103.297 10.0859 103.707 10.0859C104.117 10.0859 104.497 10.0114 104.845 9.8623C105.205 9.71323 105.515 9.50177 105.776 9.22852C106.05 8.94276 106.261 8.60066 106.41 8.20312C106.559 7.79299 106.634 7.33281 106.634 6.82324C106.634 6.31367 106.559 5.85963 106.41 5.46191C106.261 5.05198 106.05 4.70985 105.776 4.43652C105.515 4.15087 105.205 3.93325 104.845 3.78418C104.497 3.63504 104.117 3.56055 103.707 3.56055ZM6.56641 7.9043H9.09375L7.83008 4.61621L6.56641 7.9043ZM73.7041 6.74805H75.3076C75.9165 6.74803 76.3636 6.6113 76.6494 6.33789C76.9477 6.06447 77.0967 5.69199 77.0967 5.21973C77.0967 4.74746 76.9477 4.37499 76.6494 4.10156C76.3636 3.82816 75.9165 3.69143 75.3076 3.69141H73.7041V6.74805ZM87.376 6.74805H88.9795C89.5884 6.74803 90.0355 6.6113 90.3213 6.33789C90.6195 6.06447 90.7686 5.69199 90.7686 5.21973C90.7686 4.74746 90.6195 4.37499 90.3213 4.10156C90.0355 3.82816 89.5884 3.69143 88.9795 3.69141H87.376V6.74805Z" fill="white"/>
</svg>
