<svg preserveAspectRatio="none" width="100%" height="100%" overflow="visible" style="display: block;" viewBox="0 0 336.53 87.6509" fill="none" xmlns="http://www.w3.org/2000/svg">
<g id="Group 7">
<g id="Union">
<mask id="path-1-outside-1_0_24" maskUnits="userSpaceOnUse" x="-0.470423" y="0" width="337" height="43" fill="black">
<rect fill="white" x="-0.470423" width="337" height="43"/>
<path d="M67.3763 1C70.0297 1 72.6462 1.28007 75.2249 1.83966C77.8034 2.39925 80.1207 3.25733 82.1761 4.41376L78.1956 13.9828C76.2523 13.0128 74.3647 12.2854 72.5335 11.8004C70.7397 11.3155 68.983 11.073 67.264 11.073C65.9936 11.073 64.9849 11.1849 64.2376 11.4086C63.4903 11.6324 62.948 11.9305 62.6116 12.3034C62.3126 12.6765 62.1634 13.0872 62.1634 13.5349C62.1634 14.2064 62.5553 14.7477 63.3401 15.1581C64.1249 15.5311 65.1527 15.8478 66.4231 16.109C67.7311 16.3701 69.1516 16.6502 70.6839 16.9486C72.2535 17.2471 73.805 17.6568 75.3372 18.1791C76.8693 18.7014 78.2707 19.3922 79.5413 20.2502C80.8492 21.1082 81.8952 22.2276 82.68 23.6078C83.4647 24.9881 83.8577 26.7043 83.8577 28.7561C83.8576 31.1435 83.1662 33.3447 81.7835 35.3592C80.4381 37.3363 78.4195 38.9406 75.7288 40.1717C73.0381 41.3654 69.6557 41.9623 65.5823 41.9623C62.2938 41.9622 59.1173 41.5891 56.053 40.843C52.9885 40.0969 50.4654 39.1271 48.4847 37.9333L52.7454 28.3082C54.614 29.39 56.6884 30.2669 58.9681 30.9384C61.285 31.5725 63.5272 31.8893 65.6946 31.8893C66.9653 31.8893 67.9562 31.8151 68.6663 31.6658C69.4134 31.4794 69.955 31.2367 70.2913 30.9384C70.6276 30.6026 70.7962 30.2107 70.7962 29.7631C70.7962 29.0542 70.4033 28.4941 69.6184 28.0838C68.8337 27.6735 67.7875 27.3378 66.4798 27.0767C65.2093 26.7783 63.8077 26.4804 62.2757 26.1819C60.7434 25.8462 59.192 25.4167 57.6224 24.8944C56.0902 24.3721 54.6696 23.6823 53.3616 22.8243C52.0911 21.9663 51.0634 20.8469 50.2786 19.4666C49.4938 18.049 49.1018 16.2953 49.1018 14.2062C49.1019 11.7814 49.7741 9.58026 51.1194 7.6031C52.5021 5.58862 54.5391 3.98434 57.2298 2.79056C59.9579 1.59679 63.3402 1.00002 67.3763 1Z"/>
<path fill-rule="evenodd" clip-rule="evenodd" d="M313.387 1C316.601 1.00002 319.553 1.50384 322.243 2.51099C324.934 3.51826 327.271 4.95425 329.251 6.81955C331.232 8.64755 332.764 10.8119 333.848 13.3114C334.969 15.7734 335.53 18.4965 335.53 21.4806C335.53 24.4277 334.969 27.1514 333.848 29.6509C332.764 32.1502 331.232 34.3326 329.251 36.1978C327.271 38.0258 324.934 39.444 322.243 40.4513C319.553 41.4584 316.601 41.9622 313.387 41.9623C310.21 41.9623 307.258 41.4585 304.53 40.4513C301.839 39.444 299.503 38.0258 297.523 36.1978C295.542 34.3326 293.991 32.1503 292.869 29.6509C291.786 27.1514 291.244 24.4277 291.244 21.4806C291.244 18.4965 291.786 15.7734 292.869 13.3114C293.991 10.8119 295.542 8.64755 297.523 6.81955C299.503 4.95439 301.839 3.51821 304.53 2.51099C307.258 1.50373 310.21 1 313.387 1ZM313.387 11.6882C312.154 11.6882 310.995 11.9119 309.911 12.3595C308.865 12.8072 307.931 13.4604 307.109 14.3184C306.324 15.1392 305.707 16.1654 305.258 17.3965C304.81 18.5901 304.585 19.9515 304.585 21.4806C304.585 23.0101 304.81 24.3908 305.258 25.6219C305.707 26.8157 306.324 27.8419 307.109 28.7C307.931 29.5205 308.865 30.1551 309.911 30.6027C310.995 31.0503 312.154 31.2741 313.387 31.2741C314.62 31.274 315.76 31.0502 316.806 30.6027C317.89 30.155 318.825 29.5207 319.61 28.7C320.432 27.8419 321.066 26.8156 321.515 25.6219C321.963 24.3908 322.188 23.0102 322.188 21.4806C322.188 19.9514 321.963 18.5901 321.515 17.3965C321.067 16.1656 320.432 15.1391 319.61 14.3184C318.825 13.4604 317.89 12.8072 316.806 12.3595C315.76 11.912 314.62 11.6882 313.387 11.6882Z"/>
<path fill-rule="evenodd" clip-rule="evenodd" d="M48.8421 41.0655H35.1643L32.5354 34.238H17.6126L14.9837 41.0655H1.52958L18.6829 1.89383H31.6888L48.8421 41.0655ZM21.2747 24.7251H28.8733L25.0735 14.8582L21.2747 24.7251Z"/>
<path d="M101.03 15.7723H113.25V1.89383H126.48V41.0655H113.25V26.6279H101.03V41.0655H87.8001V1.89383H101.03V15.7723Z"/>
<path d="M164.749 11.8546H146.082V18.5699H162.45V28.5307H146.082V41.0655H132.852V1.89383H164.749V11.8546Z"/>
<path d="M186.778 11.7375L193.277 1.89383H207.515L193.879 20.8238L208.356 41.0655H193.221L186.432 30.5921L179.823 41.0655H164.743L178.922 21.2843L165.247 1.89383H180.103L186.778 11.7375Z"/>
<path fill-rule="evenodd" clip-rule="evenodd" d="M228.823 1.89383C232.485 1.89385 235.643 2.49063 238.296 3.68439C240.987 4.87816 243.061 6.59429 244.519 8.8326C245.976 11.0336 246.704 13.6454 246.704 16.6671C246.704 19.6889 245.976 22.3006 244.519 24.5017C243.061 26.7027 240.987 28.4188 238.296 29.6499C235.643 30.8437 232.485 31.4404 228.823 31.4404H223.16V41.0655H209.931V1.89383H228.823ZM223.16 21.2562H227.982C229.813 21.2562 231.158 20.8455 232.018 20.0248C232.915 19.2041 233.363 18.0847 233.363 16.6671C233.363 15.2496 232.915 14.1302 232.018 13.3095C231.158 12.4888 229.813 12.0791 227.982 12.079H223.16V21.2562Z"/>
<path fill-rule="evenodd" clip-rule="evenodd" d="M269.934 1.89383C273.596 1.89383 276.754 2.4907 279.408 3.68439C282.098 4.87813 284.173 6.59437 285.63 8.8326C287.088 11.0336 287.817 13.6454 287.817 16.6671C287.817 19.6889 287.088 22.3006 285.63 24.5017C284.36 26.3867 282.622 27.889 280.416 29.0095L288.658 41.0655H274.531L267.876 31.217H264.272V41.0655H251.042V1.89383H269.934ZM264.272 21.2562H269.093C270.924 21.2562 272.27 20.8455 273.129 20.0248C274.026 19.2041 274.475 18.0848 274.475 16.6671C274.475 15.2496 274.026 14.1302 273.129 13.3095C272.27 12.4889 270.924 12.079 269.093 12.079H264.272V21.2562Z"/>
</mask>
<path d="M67.3763 1C70.0297 1 72.6462 1.28007 75.2249 1.83966C77.8034 2.39925 80.1207 3.25733 82.1761 4.41376L78.1956 13.9828C76.2523 13.0128 74.3647 12.2854 72.5335 11.8004C70.7397 11.3155 68.983 11.073 67.264 11.073C65.9936 11.073 64.9849 11.1849 64.2376 11.4086C63.4903 11.6324 62.948 11.9305 62.6116 12.3034C62.3126 12.6765 62.1634 13.0872 62.1634 13.5349C62.1634 14.2064 62.5553 14.7477 63.3401 15.1581C64.1249 15.5311 65.1527 15.8478 66.4231 16.109C67.7311 16.3701 69.1516 16.6502 70.6839 16.9486C72.2535 17.2471 73.805 17.6568 75.3372 18.1791C76.8693 18.7014 78.2707 19.3922 79.5413 20.2502C80.8492 21.1082 81.8952 22.2276 82.68 23.6078C83.4647 24.9881 83.8577 26.7043 83.8577 28.7561C83.8576 31.1435 83.1662 33.3447 81.7835 35.3592C80.4381 37.3363 78.4195 38.9406 75.7288 40.1717C73.0381 41.3654 69.6557 41.9623 65.5823 41.9623C62.2938 41.9622 59.1173 41.5891 56.053 40.843C52.9885 40.0969 50.4654 39.1271 48.4847 37.9333L52.7454 28.3082C54.614 29.39 56.6884 30.2669 58.9681 30.9384C61.285 31.5725 63.5272 31.8893 65.6946 31.8893C66.9653 31.8893 67.9562 31.8151 68.6663 31.6658C69.4134 31.4794 69.955 31.2367 70.2913 30.9384C70.6276 30.6026 70.7962 30.2107 70.7962 29.7631C70.7962 29.0542 70.4033 28.4941 69.6184 28.0838C68.8337 27.6735 67.7875 27.3378 66.4798 27.0767C65.2093 26.7783 63.8077 26.4804 62.2757 26.1819C60.7434 25.8462 59.192 25.4167 57.6224 24.8944C56.0902 24.3721 54.6696 23.6823 53.3616 22.8243C52.0911 21.9663 51.0634 20.8469 50.2786 19.4666C49.4938 18.049 49.1018 16.2953 49.1018 14.2062C49.1019 11.7814 49.7741 9.58026 51.1194 7.6031C52.5021 5.58862 54.5391 3.98434 57.2298 2.79056C59.9579 1.59679 63.3402 1.00002 67.3763 1Z" fill="var(--fill-0, white)"/>
<path fill-rule="evenodd" clip-rule="evenodd" d="M313.387 1C316.601 1.00002 319.553 1.50384 322.243 2.51099C324.934 3.51826 327.271 4.95425 329.251 6.81955C331.232 8.64755 332.764 10.8119 333.848 13.3114C334.969 15.7734 335.53 18.4965 335.53 21.4806C335.53 24.4277 334.969 27.1514 333.848 29.6509C332.764 32.1502 331.232 34.3326 329.251 36.1978C327.271 38.0258 324.934 39.444 322.243 40.4513C319.553 41.4584 316.601 41.9622 313.387 41.9623C310.21 41.9623 307.258 41.4585 304.53 40.4513C301.839 39.444 299.503 38.0258 297.523 36.1978C295.542 34.3326 293.991 32.1503 292.869 29.6509C291.786 27.1514 291.244 24.4277 291.244 21.4806C291.244 18.4965 291.786 15.7734 292.869 13.3114C293.991 10.8119 295.542 8.64755 297.523 6.81955C299.503 4.95439 301.839 3.51821 304.53 2.51099C307.258 1.50373 310.21 1 313.387 1ZM313.387 11.6882C312.154 11.6882 310.995 11.9119 309.911 12.3595C308.865 12.8072 307.931 13.4604 307.109 14.3184C306.324 15.1392 305.707 16.1654 305.258 17.3965C304.81 18.5901 304.585 19.9515 304.585 21.4806C304.585 23.0101 304.81 24.3908 305.258 25.6219C305.707 26.8157 306.324 27.8419 307.109 28.7C307.931 29.5205 308.865 30.1551 309.911 30.6027C310.995 31.0503 312.154 31.2741 313.387 31.2741C314.62 31.274 315.76 31.0502 316.806 30.6027C317.89 30.155 318.825 29.5207 319.61 28.7C320.432 27.8419 321.066 26.8156 321.515 25.6219C321.963 24.3908 322.188 23.0102 322.188 21.4806C322.188 19.9514 321.963 18.5901 321.515 17.3965C321.067 16.1656 320.432 15.1391 319.61 14.3184C318.825 13.4604 317.89 12.8072 316.806 12.3595C315.76 11.912 314.62 11.6882 313.387 11.6882Z" fill="var(--fill-0, white)"/>
<path fill-rule="evenodd" clip-rule="evenodd" d="M48.8421 41.0655H35.1643L32.5354 34.238H17.6126L14.9837 41.0655H1.52958L18.6829 1.89383H31.6888L48.8421 41.0655ZM21.2747 24.7251H28.8733L25.0735 14.8582L21.2747 24.7251Z" fill="var(--fill-0, white)"/>
<path d="M101.03 15.7723H113.25V1.89383H126.48V41.0655H113.25V26.6279H101.03V41.0655H87.8001V1.89383H101.03V15.7723Z" fill="var(--fill-0, white)"/>
<path d="M164.749 11.8546H146.082V18.5699H162.45V28.5307H146.082V41.0655H132.852V1.89383H164.749V11.8546Z" fill="var(--fill-0, white)"/>
<path d="M186.778 11.7375L193.277 1.89383H207.515L193.879 20.8238L208.356 41.0655H193.221L186.432 30.5921L179.823 41.0655H164.743L178.922 21.2843L165.247 1.89383H180.103L186.778 11.7375Z" fill="var(--fill-0, white)"/>
<path fill-rule="evenodd" clip-rule="evenodd" d="M228.823 1.89383C232.485 1.89385 235.643 2.49063 238.296 3.68439C240.987 4.87816 243.061 6.59429 244.519 8.8326C245.976 11.0336 246.704 13.6454 246.704 16.6671C246.704 19.6889 245.976 22.3006 244.519 24.5017C243.061 26.7027 240.987 28.4188 238.296 29.6499C235.643 30.8437 232.485 31.4404 228.823 31.4404H223.16V41.0655H209.931V1.89383H228.823ZM223.16 21.2562H227.982C229.813 21.2562 231.158 20.8455 232.018 20.0248C232.915 19.2041 233.363 18.0847 233.363 16.6671C233.363 15.2496 232.915 14.1302 232.018 13.3095C231.158 12.4888 229.813 12.0791 227.982 12.079H223.16V21.2562Z" fill="var(--fill-0, white)"/>
<path fill-rule="evenodd" clip-rule="evenodd" d="M269.934 1.89383C273.596 1.89383 276.754 2.4907 279.408 3.68439C282.098 4.87813 284.173 6.59437 285.63 8.8326C287.088 11.0336 287.817 13.6454 287.817 16.6671C287.817 19.6889 287.088 22.3006 285.63 24.5017C284.36 26.3867 282.622 27.889 280.416 29.0095L288.658 41.0655H274.531L267.876 31.217H264.272V41.0655H251.042V1.89383H269.934ZM264.272 21.2562H269.093C270.924 21.2562 272.27 20.8455 273.129 20.0248C274.026 19.2041 274.475 18.0848 274.475 16.6671C274.475 15.2496 274.026 14.1302 273.129 13.3095C272.27 12.4889 270.924 12.079 269.093 12.079H264.272V21.2562Z" fill="var(--fill-0, white)"/>
<path d="M67.3763 1C70.0297 1 72.6462 1.28007 75.2249 1.83966C77.8034 2.39925 80.1207 3.25733 82.1761 4.41376L78.1956 13.9828C76.2523 13.0128 74.3647 12.2854 72.5335 11.8004C70.7397 11.3155 68.983 11.073 67.264 11.073C65.9936 11.073 64.9849 11.1849 64.2376 11.4086C63.4903 11.6324 62.948 11.9305 62.6116 12.3034C62.3126 12.6765 62.1634 13.0872 62.1634 13.5349C62.1634 14.2064 62.5553 14.7477 63.3401 15.1581C64.1249 15.5311 65.1527 15.8478 66.4231 16.109C67.7311 16.3701 69.1516 16.6502 70.6839 16.9486C72.2535 17.2471 73.805 17.6568 75.3372 18.1791C76.8693 18.7014 78.2707 19.3922 79.5413 20.2502C80.8492 21.1082 81.8952 22.2276 82.68 23.6078C83.4647 24.9881 83.8577 26.7043 83.8577 28.7561C83.8576 31.1435 83.1662 33.3447 81.7835 35.3592C80.4381 37.3363 78.4195 38.9406 75.7288 40.1717C73.0381 41.3654 69.6557 41.9623 65.5823 41.9623C62.2938 41.9622 59.1173 41.5891 56.053 40.843C52.9885 40.0969 50.4654 39.1271 48.4847 37.9333L52.7454 28.3082C54.614 29.39 56.6884 30.2669 58.9681 30.9384C61.285 31.5725 63.5272 31.8893 65.6946 31.8893C66.9653 31.8893 67.9562 31.8151 68.6663 31.6658C69.4134 31.4794 69.955 31.2367 70.2913 30.9384C70.6276 30.6026 70.7962 30.2107 70.7962 29.7631C70.7962 29.0542 70.4033 28.4941 69.6184 28.0838C68.8337 27.6735 67.7875 27.3378 66.4798 27.0767C65.2093 26.7783 63.8077 26.4804 62.2757 26.1819C60.7434 25.8462 59.192 25.4167 57.6224 24.8944C56.0902 24.3721 54.6696 23.6823 53.3616 22.8243C52.0911 21.9663 51.0634 20.8469 50.2786 19.4666C49.4938 18.049 49.1018 16.2953 49.1018 14.2062C49.1019 11.7814 49.7741 9.58026 51.1194 7.6031C52.5021 5.58862 54.5391 3.98434 57.2298 2.79056C59.9579 1.59679 63.3402 1.00002 67.3763 1Z" stroke="var(--stroke-0, white)" stroke-opacity="0.19" stroke-width="2" mask="url(#path-1-outside-1_0_24)"/>
<path fill-rule="evenodd" clip-rule="evenodd" d="M313.387 1C316.601 1.00002 319.553 1.50384 322.243 2.51099C324.934 3.51826 327.271 4.95425 329.251 6.81955C331.232 8.64755 332.764 10.8119 333.848 13.3114C334.969 15.7734 335.53 18.4965 335.53 21.4806C335.53 24.4277 334.969 27.1514 333.848 29.6509C332.764 32.1502 331.232 34.3326 329.251 36.1978C327.271 38.0258 324.934 39.444 322.243 40.4513C319.553 41.4584 316.601 41.9622 313.387 41.9623C310.21 41.9623 307.258 41.4585 304.53 40.4513C301.839 39.444 299.503 38.0258 297.523 36.1978C295.542 34.3326 293.991 32.1503 292.869 29.6509C291.786 27.1514 291.244 24.4277 291.244 21.4806C291.244 18.4965 291.786 15.7734 292.869 13.3114C293.991 10.8119 295.542 8.64755 297.523 6.81955C299.503 4.95439 301.839 3.51821 304.53 2.51099C307.258 1.50373 310.21 1 313.387 1ZM313.387 11.6882C312.154 11.6882 310.995 11.9119 309.911 12.3595C308.865 12.8072 307.931 13.4604 307.109 14.3184C306.324 15.1392 305.707 16.1654 305.258 17.3965C304.81 18.5901 304.585 19.9515 304.585 21.4806C304.585 23.0101 304.81 24.3908 305.258 25.6219C305.707 26.8157 306.324 27.8419 307.109 28.7C307.931 29.5205 308.865 30.1551 309.911 30.6027C310.995 31.0503 312.154 31.2741 313.387 31.2741C314.62 31.274 315.76 31.0502 316.806 30.6027C317.89 30.155 318.825 29.5207 319.61 28.7C320.432 27.8419 321.066 26.8156 321.515 25.6219C321.963 24.3908 322.188 23.0102 322.188 21.4806C322.188 19.9514 321.963 18.5901 321.515 17.3965C321.067 16.1656 320.432 15.1391 319.61 14.3184C318.825 13.4604 317.89 12.8072 316.806 12.3595C315.76 11.912 314.62 11.6882 313.387 11.6882Z" stroke="var(--stroke-0, white)" stroke-opacity="0.19" stroke-width="2" mask="url(#path-1-outside-1_0_24)"/>
<path fill-rule="evenodd" clip-rule="evenodd" d="M48.8421 41.0655H35.1643L32.5354 34.238H17.6126L14.9837 41.0655H1.52958L18.6829 1.89383H31.6888L48.8421 41.0655ZM21.2747 24.7251H28.8733L25.0735 14.8582L21.2747 24.7251Z" stroke="var(--stroke-0, white)" stroke-opacity="0.19" stroke-width="2" mask="url(#path-1-outside-1_0_24)"/>
<path d="M101.03 15.7723H113.25V1.89383H126.48V41.0655H113.25V26.6279H101.03V41.0655H87.8001V1.89383H101.03V15.7723Z" stroke="var(--stroke-0, white)" stroke-opacity="0.19" stroke-width="2" mask="url(#path-1-outside-1_0_24)"/>
<path d="M164.749 11.8546H146.082V18.5699H162.45V28.5307H146.082V41.0655H132.852V1.89383H164.749V11.8546Z" stroke="var(--stroke-0, white)" stroke-opacity="0.19" stroke-width="2" mask="url(#path-1-outside-1_0_24)"/>
<path d="M186.778 11.7375L193.277 1.89383H207.515L193.879 20.8238L208.356 41.0655H193.221L186.432 30.5921L179.823 41.0655H164.743L178.922 21.2843L165.247 1.89383H180.103L186.778 11.7375Z" stroke="var(--stroke-0, white)" stroke-opacity="0.19" stroke-width="2" mask="url(#path-1-outside-1_0_24)"/>
<path fill-rule="evenodd" clip-rule="evenodd" d="M228.823 1.89383C232.485 1.89385 235.643 2.49063 238.296 3.68439C240.987 4.87816 243.061 6.59429 244.519 8.8326C245.976 11.0336 246.704 13.6454 246.704 16.6671C246.704 19.6889 245.976 22.3006 244.519 24.5017C243.061 26.7027 240.987 28.4188 238.296 29.6499C235.643 30.8437 232.485 31.4404 228.823 31.4404H223.16V41.0655H209.931V1.89383H228.823ZM223.16 21.2562H227.982C229.813 21.2562 231.158 20.8455 232.018 20.0248C232.915 19.2041 233.363 18.0847 233.363 16.6671C233.363 15.2496 232.915 14.1302 232.018 13.3095C231.158 12.4888 229.813 12.0791 227.982 12.079H223.16V21.2562Z" stroke="var(--stroke-0, white)" stroke-opacity="0.19" stroke-width="2" mask="url(#path-1-outside-1_0_24)"/>
<path fill-rule="evenodd" clip-rule="evenodd" d="M269.934 1.89383C273.596 1.89383 276.754 2.4907 279.408 3.68439C282.098 4.87813 284.173 6.59437 285.63 8.8326C287.088 11.0336 287.817 13.6454 287.817 16.6671C287.817 19.6889 287.088 22.3006 285.63 24.5017C284.36 26.3867 282.622 27.889 280.416 29.0095L288.658 41.0655H274.531L267.876 31.217H264.272V41.0655H251.042V1.89383H269.934ZM264.272 21.2562H269.093C270.924 21.2562 272.27 20.8455 273.129 20.0248C274.026 19.2041 274.475 18.0848 274.475 16.6671C274.475 15.2496 274.026 14.1302 273.129 13.3095C272.27 12.4889 270.924 12.079 269.093 12.079H264.272V21.2562Z" stroke="var(--stroke-0, white)" stroke-opacity="0.19" stroke-width="2" mask="url(#path-1-outside-1_0_24)"/>
</g>
<g id="Union_2">
<path fill-rule="evenodd" clip-rule="evenodd" d="M20.4033 57.719C22.2376 57.7191 23.585 58.132 24.446 58.957C25.3446 59.7821 25.7939 60.907 25.7939 62.332L25.7885 62.5959C25.7358 63.8966 25.2883 64.9336 24.446 65.7071C23.6388 66.4804 22.4041 66.8912 20.7416 66.9396L20.4033 66.945H15.5734V57.719H20.4033ZM16.3644 66.1527H20.4033C22.1407 66.1527 23.2485 65.7587 23.9 65.1345L23.9115 65.1229C24.6189 64.4734 25.0029 63.5756 25.0029 62.332C25.0029 61.0884 24.6189 60.19 23.9115 59.5404L23.9054 59.535L23.9 59.5296C23.2485 58.9053 22.1407 58.5114 20.4033 58.5113H16.3644V66.1527Z" fill="var(--fill-0, white)" fill-opacity="0.19"/>
<path fill-rule="evenodd" clip-rule="evenodd" d="M21.2452 46.6887C24.9981 46.6887 28.2779 47.3023 31.0609 48.5588C33.8782 49.8137 36.0784 51.6316 37.6294 54.0198L37.9121 54.467C39.2794 56.7291 39.9505 59.3604 39.9505 62.332C39.9505 65.5018 39.1869 68.284 37.6294 70.6443C36.0784 72.9948 33.8788 74.8113 31.0655 76.103L31.0609 76.1053C28.2779 77.3618 24.9981 77.9754 21.2452 77.9754H16.3644V87.6509H1.52958V46.6887H21.2452ZM2.32052 47.481V86.8586H15.5734V77.1831H21.2452L21.9272 77.1761C25.3076 77.1058 28.2437 76.5077 30.7357 75.3826C33.4313 74.145 35.509 72.4197 36.969 70.2071C38.3378 68.1328 39.0655 65.6962 39.1511 62.8969L39.1596 62.332C39.1596 59.2943 38.4291 56.6688 36.969 54.4562C35.6002 52.3468 33.6886 50.6986 31.2339 49.512L30.7357 49.2815C28.0776 48.0814 24.9141 47.481 21.2452 47.481H2.32052Z" fill="var(--fill-0, white)" fill-opacity="0.19"/>
<path fill-rule="evenodd" clip-rule="evenodd" d="M60.8263 67.2197L67.4852 46.6887H80.8323L87.122 67.4913L93.7639 46.6887H108.004L95.094 87.1L94.9187 87.6509H79.5455L73.7726 68.4794L67.859 87.0985L67.6829 87.6509H52.3198L39.2345 46.6887H54.549L60.8263 67.2197ZM52.8976 86.8586H67.1052L73.7926 65.803L80.1333 86.8586H94.3409L106.92 47.481H94.3409L87.1012 70.1568L80.2453 47.481H68.0599L60.8039 69.8535L53.9643 47.481H40.3182L52.8976 86.8586Z" fill="var(--fill-0, white)" fill-opacity="0.19"/>
<path fill-rule="evenodd" clip-rule="evenodd" d="M131.561 70.4323H123.949L127.755 60.5138L131.561 70.4323ZM125.1 69.64H130.41L127.755 62.7212L125.1 69.64Z" fill="var(--fill-0, white)" fill-opacity="0.19"/>
<path fill-rule="evenodd" clip-rule="evenodd" d="M152.775 87.6509H137.32L134.687 80.7879H120.824L118.19 87.6509H102.96L120.836 46.6887H134.899L152.775 87.6509ZM104.17 86.8586H117.647L120.28 79.9956H135.23L137.864 86.8586H151.566L134.382 47.481H121.353L104.17 86.8586Z" fill="var(--fill-0, white)" fill-opacity="0.19"/>
</g>
</g>
</svg>
