<svg preserveAspectRatio="none" width="100%" height="100%" overflow="visible" style="display: block;" viewBox="0 0 51.5 45.5" fill="none" xmlns="http://www.w3.org/2000/svg">
<g id="Group 6">
<path id="Vector" d="M28 45C10.5 45 6.5 32.5 6.5 25C6.5 19.6173 9.71926 15.1736 11.8257 13.1128C12.1954 12.7511 12.78 12.78 13.1457 13.1457L14.7621 14.7621C15.3093 15.3093 16.2441 15.0542 16.4375 14.3048L19.5799 2.12774C19.7694 1.39353 19.1047 0.723814 18.3691 0.907718L5.71346 4.07164C4.95937 4.26016 4.69925 5.19925 5.24888 5.74888L6.83846 7.33846C7.21073 7.71073 7.23147 8.30472 6.904 8.71694C4.45548 11.7991 0.5 18.3713 0.5 25C0.5 34 4.5 38 8.5 44M23.5 0.5C41 0.5 45 13 45 20.5C45 25.8827 41.7807 30.3264 39.6743 32.3872C39.3046 32.7489 38.72 32.72 38.3543 32.3543L36.7379 30.7379C36.1907 30.1907 35.2559 30.4458 35.0625 31.1952L31.9201 43.3723C31.7306 44.1065 32.3953 44.7762 33.1309 44.5923L45.7865 41.4284C46.5406 41.2398 46.8007 40.3007 46.2511 39.7511L44.6615 38.1615C44.2893 37.7893 44.2685 37.1953 44.596 36.7831C47.0445 33.7009 51 27.1287 51 20.5C51 11.5 47 7.5 43 1.5" stroke="var(--stroke-0, #0062FF)"/>
<circle id="Ellipse 4" cx="25" cy="22.25" r="5" stroke="var(--stroke-0, #0062FF)"/>
</g>
</svg>
