<svg preserveAspectRatio="none" width="100%" height="100%" overflow="visible" style="display: block;" viewBox="0 0 47 47" fill="none" xmlns="http://www.w3.org/2000/svg">
<path id="Vector" d="M23.4645 29.7162L19.1486 34.032H14.7973V39.4668L13.5541 40.7456H7.64865V46.5H0.5V40.7456L17.2838 23.9618M46.5 16.0405C46.5 24.6233 39.5423 31.5811 30.9595 31.5811C22.3767 31.5811 15.4189 24.6233 15.4189 16.0405C15.4189 7.45774 22.3767 0.5 30.9595 0.5C39.5423 0.5 46.5 7.45774 46.5 16.0405ZM37.7973 13.5541C37.7973 15.9572 35.8491 17.9054 33.4459 17.9054C31.0428 17.9054 29.0946 15.9572 29.0946 13.5541C29.0946 11.1509 31.0428 9.2027 33.4459 9.2027C35.8491 9.2027 37.7973 11.1509 37.7973 13.5541Z" stroke="var(--stroke-0, #0062FF)"/>
</svg>
